<?xml version="1.0" standalone="no"?>
<!DOCTYPE svg PUBLIC "-//W3C//DTD SVG 20010904//EN"
 "http://www.w3.org/TR/2001/REC-SVG-20010904/DTD/svg10.dtd">
<svg version="1.0" xmlns="http://www.w3.org/2000/svg"
 width="2800.000000pt" height="2800.000000pt" viewBox="0 0 2800.000000 2800.000000"
 preserveAspectRatio="xMidYMid meet">
<metadata>
Created by potrace 1.14, written by Peter Selinger 2001-2017
</metadata>
<g transform="translate(0.000000,2800.000000) scale(0.100000,-0.100000)"
fill="#000000" stroke="none">
<path d="M12795 27470 c-58 -13 -106 -43 -150 -94 -24 -28 -45 -58 -47 -66 -2
-8 -9 -21 -15 -28 -15 -16 -41 -101 -52 -170 -4 -28 -6 -162 -5 -299 4 -242 7
-320 19 -453 3 -36 8 -90 10 -120 6 -81 14 -169 19 -215 3 -22 8 -71 11 -110
6 -77 13 -137 20 -175 2 -14 7 -54 10 -90 3 -36 8 -76 10 -90 2 -14 6 -47 9
-75 12 -99 36 -271 42 -305 2 -14 6 -47 9 -75 3 -27 8 -61 11 -74 3 -13 7 -46
10 -75 3 -28 7 -62 9 -76 6 -32 23 -162 30 -220 3 -25 9 -67 14 -95 6 -27 13
-70 16 -95 8 -58 12 -88 19 -127 3 -18 8 -48 11 -65 3 -18 10 -55 15 -83 5
-27 12 -61 14 -75 3 -14 10 -50 16 -80 7 -30 14 -64 16 -75 2 -11 11 -49 20
-85 9 -36 17 -72 19 -80 2 -8 4 -15 5 -15 1 0 3 -7 5 -15 2 -8 7 -26 13 -40 5
-14 10 -28 10 -33 3 -25 58 -107 80 -117 139 -68 308 -2 338 131 2 10 6 29 9
42 24 96 24 374 0 592 -6 62 -15 162 -21 235 -8 110 -12 157 -19 230 -3 36 -8
90 -11 120 -2 30 -6 71 -8 90 -2 19 -7 71 -11 115 -3 44 -9 98 -11 120 -2 22
-7 69 -9 105 -3 36 -8 88 -11 115 -2 28 -7 73 -9 100 -3 28 -8 75 -11 105 -7
70 -11 115 -19 215 -3 44 -8 94 -11 110 -3 17 -7 55 -9 85 -1 30 -5 75 -8 100
-6 42 -8 67 -22 215 -3 33 -8 85 -12 115 -3 30 -7 69 -8 85 -1 17 -5 55 -9 85
-3 30 -8 82 -11 115 -4 33 -8 71 -10 85 -2 14 -7 48 -10 75 -6 43 -12 76 -40
203 -8 34 -41 114 -65 158 -22 39 -90 120 -90 107 0 -3 -8 1 -17 9 -27 23 -74
35 -108 28z"/>
<path d="M20295 26356 c-76 -18 -154 -65 -217 -128 -53 -54 -208 -276 -208
-298 0 -5 -4 -10 -10 -10 -5 0 -10 -4 -10 -9 0 -8 -77 -150 -120 -221 -66
-110 -386 -757 -382 -772 1 -5 -2 -8 -6 -8 -4 0 -16 -22 -27 -50 -11 -27 -23
-50 -27 -50 -4 0 -8 -9 -8 -19 0 -11 -4 -23 -10 -26 -5 -3 -10 -15 -10 -26 0
-10 -4 -19 -10 -19 -5 0 -10 -5 -10 -11 0 -5 -9 -29 -19 -52 -11 -23 -65 -143
-121 -267 -56 -124 -112 -247 -125 -275 -59 -130 -98 -219 -125 -285 -12 -30
-28 -68 -35 -85 -29 -66 -39 -90 -39 -95 -1 -3 -4 -10 -8 -16 -6 -9 -50 -119
-53 -134 -1 -3 -5 -14 -10 -25 -32 -77 -91 -246 -101 -290 -1 -5 -10 -41 -19
-80 -33 -140 -21 -180 78 -261 52 -43 177 -43 245 0 59 37 178 190 245 316 11
19 37 69 59 110 22 41 45 81 52 89 6 8 10 16 8 18 -2 3 49 107 100 201 52 96
188 372 186 375 -2 2 3 11 10 20 20 23 231 447 223 447 -3 0 -1 4 5 8 9 7 53
93 55 109 0 5 6 14 11 21 17 20 58 104 58 118 0 7 4 14 8 16 10 4 122 227 122
243 0 8 4 15 8 17 8 3 139 266 319 638 144 298 177 398 177 544 0 69 -4 101
-12 104 -7 2 -9 8 -6 13 3 6 -7 26 -21 45 -46 61 -128 83 -220 60z"/>
<path d="M6260 25149 c-18 -11 -39 -26 -46 -34 -20 -20 -53 -87 -56 -117 -2
-15 -6 -30 -9 -32 -10 -10 1 -142 17 -195 21 -74 71 -172 161 -316 41 -66 80
-129 86 -140 7 -11 15 -22 18 -25 3 -3 25 -35 49 -72 24 -38 47 -68 52 -68 4
0 8 -5 8 -10 0 -9 202 -295 219 -310 3 -3 11 -12 16 -21 28 -44 80 -109 87
-109 4 0 8 -4 8 -10 0 -8 117 -166 151 -204 21 -23 32 -37 59 -76 13 -19 27
-37 30 -40 3 -3 41 -50 85 -105 43 -55 93 -116 110 -136 33 -39 43 -52 95
-119 19 -24 47 -58 62 -75 16 -16 28 -33 28 -37 0 -4 10 -18 23 -30 12 -13 38
-44 57 -68 52 -68 64 -81 80 -99 8 -10 44 -53 79 -96 35 -44 69 -84 75 -90 6
-5 33 -37 61 -70 27 -33 64 -76 81 -95 207 -229 307 -327 399 -390 66 -45 129
-47 201 -5 157 92 159 233 6 488 -48 80 -235 353 -252 367 -3 3 -26 34 -51 70
-24 36 -47 67 -50 70 -3 3 -23 30 -43 60 -21 30 -48 67 -62 82 -13 15 -24 31
-24 34 0 3 -10 18 -22 33 -13 15 -32 40 -43 55 -11 16 -38 52 -60 81 -22 30
-71 97 -110 149 -38 53 -73 96 -77 96 -5 0 -8 5 -8 11 0 6 -54 83 -120 171
-66 88 -120 164 -120 169 0 5 -4 9 -9 9 -5 0 -18 15 -29 33 -11 17 -27 41 -36
52 -18 22 -90 119 -121 161 -11 15 -26 33 -32 40 -7 7 -13 17 -13 23 0 6 -4
11 -10 11 -5 0 -10 5 -10 11 0 6 -6 17 -14 24 -8 8 -36 44 -62 80 -26 36 -51
65 -56 65 -4 0 -8 5 -8 11 0 9 -79 119 -157 219 -7 8 -61 78 -120 155 -108
140 -250 289 -284 300 -11 4 -19 10 -19 14 0 5 -28 21 -62 36 -81 37 -161 42
-208 14z"/>
<path d="M14217 21763 c-1 0 -51 -4 -112 -8 -60 -3 -132 -8 -160 -10 -27 -2
-81 -7 -119 -10 -38 -3 -87 -7 -108 -10 -21 -3 -57 -7 -80 -10 -42 -5 -164
-22 -223 -31 -166 -25 -544 -102 -637 -129 -27 -8 -48 -12 -48 -9 0 3 -8 0
-18 -5 -11 -6 -30 -12 -43 -15 -29 -5 -198 -54 -219 -63 -8 -3 -19 -7 -25 -8
-5 -1 -13 -3 -17 -5 -5 -1 -12 -4 -18 -5 -5 -1 -12 -4 -15 -5 -3 -1 -9 -4 -15
-5 -5 -1 -11 -3 -12 -4 -2 -2 -14 -4 -27 -7 -14 -2 -30 -9 -38 -15 -7 -6 -13
-8 -13 -5 0 4 -9 2 -21 -4 -11 -6 -28 -13 -37 -15 -9 -2 -30 -9 -47 -16 -16
-7 -33 -12 -37 -11 -10 2 -226 -66 -266 -83 -18 -8 -37 -15 -43 -15 -14 0
-276 -105 -389 -155 -206 -93 -393 -189 -555 -284 -116 -69 -329 -203 -335
-212 -3 -3 -20 -14 -37 -23 -18 -9 -33 -21 -33 -26 0 -6 -6 -10 -12 -10 -15
-1 -122 -78 -303 -220 -49 -39 -97 -76 -105 -83 -19 -15 -131 -108 -146 -122
-6 -5 -42 -37 -79 -70 -311 -278 -589 -576 -839 -900 -47 -61 -178 -243 -206
-285 -5 -8 -30 -46 -56 -85 -58 -87 -214 -350 -214 -360 0 -4 -9 -20 -21 -36
-11 -16 -17 -29 -12 -29 4 0 3 -4 -3 -8 -14 -9 -94 -168 -88 -175 2 -2 -2 -10
-11 -17 -8 -7 -15 -18 -15 -24 0 -6 -10 -29 -21 -51 -12 -22 -21 -41 -21 -42
1 -2 -6 -20 -15 -40 -9 -21 -17 -40 -18 -43 0 -3 -3 -9 -7 -15 -28 -45 -110
-303 -143 -455 -2 -8 -13 -58 -25 -110 -24 -109 -25 -113 -34 -160 -3 -19 -8
-46 -11 -60 -9 -43 -44 -253 -50 -300 -3 -25 -8 -57 -11 -72 -2 -15 -6 -49 -9
-75 -2 -27 -7 -68 -10 -93 -22 -190 -28 -325 -28 -610 0 -239 7 -433 17 -487
3 -11 7 -44 11 -74 3 -30 8 -65 10 -79 2 -14 7 -43 10 -65 3 -23 7 -52 10 -65
3 -14 8 -41 11 -60 22 -120 127 -507 168 -620 9 -25 19 -55 22 -68 2 -12 14
-46 25 -75 12 -28 22 -56 24 -62 2 -12 4 -15 71 -180 75 -187 115 -274 229
-500 104 -205 126 -246 136 -255 3 -3 9 -13 12 -24 15 -38 328 -551 347 -566
3 -3 21 -29 39 -59 18 -30 38 -60 44 -67 27 -30 37 -43 37 -49 0 -13 328 -458
449 -610 31 -39 69 -88 86 -110 16 -22 34 -44 40 -50 7 -5 27 -30 46 -55 18
-25 39 -51 46 -58 7 -7 33 -39 59 -72 26 -33 51 -60 55 -60 5 0 9 -6 9 -13 0
-7 10 -23 22 -35 13 -11 28 -27 33 -34 14 -19 107 -129 127 -152 10 -11 18
-24 18 -28 0 -5 5 -6 10 -3 6 3 10 1 10 -5 0 -6 42 -60 93 -118 50 -59 103
-120 117 -136 14 -16 30 -34 35 -40 16 -17 247 -282 282 -322 19 -23 118 -135
193 -219 25 -28 61 -70 80 -94 19 -24 45 -55 58 -69 12 -14 22 -28 22 -31 0
-3 10 -18 23 -33 52 -62 57 -69 57 -77 0 -4 9 -16 20 -26 11 -10 20 -24 20
-31 0 -7 4 -14 8 -16 11 -4 92 -126 92 -138 0 -5 4 -10 8 -12 9 -3 121 -196
143 -246 7 -18 17 -32 21 -32 5 0 8 -6 8 -12 0 -7 18 -50 40 -96 22 -46 40
-87 40 -93 0 -5 11 -32 25 -59 14 -28 22 -50 18 -50 -4 0 -2 -5 5 -12 7 -7 12
-20 12 -30 0 -10 4 -26 9 -36 6 -9 20 -48 31 -87 12 -38 24 -77 27 -85 3 -8 7
-22 8 -30 1 -8 10 -46 19 -85 18 -74 21 -86 36 -175 56 -332 57 -698 5 -1030
-2 -14 -7 -47 -10 -75 -4 -27 -8 -58 -11 -67 -31 -108 -34 -252 -9 -403 9 -53
54 -197 67 -213 6 -6 8 -12 5 -12 -17 0 140 -267 182 -312 9 -9 27 -31 40 -50
30 -40 292 -300 298 -294 2 2 14 -6 26 -18 13 -11 38 -32 56 -46 19 -14 40
-31 47 -38 7 -6 17 -12 22 -12 5 0 17 -9 27 -20 10 -11 24 -20 31 -20 7 0 14
-3 16 -7 6 -14 162 -114 303 -194 89 -50 345 -178 345 -172 0 3 9 -2 20 -12
11 -10 20 -15 20 -11 0 4 20 -5 45 -19 25 -13 46 -24 48 -23 1 1 43 -13 92
-31 84 -30 236 -77 279 -86 10 -3 33 -9 50 -14 17 -6 45 -12 61 -15 17 -2 64
-11 105 -19 41 -9 93 -18 115 -21 22 -3 51 -8 65 -10 236 -43 720 -48 1015
-11 17 2 52 7 79 10 129 16 368 63 496 99 30 8 80 21 110 29 30 9 93 29 140
46 47 18 92 33 100 36 28 7 163 65 175 75 7 5 15 7 18 4 3 -4 13 1 22 10 9 9
23 16 31 16 9 0 25 5 37 12 12 7 27 13 33 14 6 1 46 18 87 38 42 20 79 36 82
36 16 0 361 178 470 243 17 10 38 20 48 23 9 4 17 10 17 15 0 5 5 9 11 9 16 0
259 161 259 171 0 5 5 9 11 9 11 0 149 104 217 163 84 73 283 278 345 354 36
45 91 121 123 169 63 98 174 312 174 337 0 9 4 18 9 22 12 7 42 96 48 143 15
120 2 202 -50 316 -32 69 -134 229 -173 271 -11 11 -48 58 -84 105 -35 47 -67
87 -70 90 -15 12 -81 131 -105 190 -30 72 -29 69 -40 125 -4 22 -10 44 -13 49
-3 6 -7 19 -8 30 -20 200 -22 319 -10 480 4 55 9 107 11 115 1 9 6 41 9 71 4
30 19 132 32 225 14 94 27 186 30 205 4 29 11 69 39 210 2 8 4 15 6 15 1 0 3
9 13 60 2 11 6 27 9 35 4 8 9 26 11 40 3 14 5 26 7 28 1 1 2 5 3 10 2 9 36
123 40 137 2 6 4 13 5 17 1 4 14 40 28 80 14 40 26 78 28 83 1 6 6 19 10 30
115 291 116 292 195 460 85 180 114 239 120 245 3 3 26 46 51 95 63 124 92
177 107 193 6 7 12 17 12 22 0 5 20 43 45 84 25 42 45 81 45 86 0 6 4 10 9 10
5 0 14 12 20 28 6 15 42 79 82 142 39 63 130 211 202 328 73 117 139 225 148
240 87 144 222 361 234 377 8 10 15 23 15 27 0 4 16 32 35 62 19 30 35 57 35
59 0 3 17 34 38 68 22 35 50 84 64 109 97 175 151 278 194 365 27 55 52 101
57 103 4 2 7 8 7 14 0 6 13 38 29 72 60 126 84 181 84 194 0 6 3 12 7 12 3 0
12 17 19 38 7 20 33 89 58 152 25 63 47 122 48 130 2 8 4 16 5 18 2 1 3 5 5
10 1 4 4 14 8 22 40 104 116 392 147 560 6 30 17 78 25 105 9 28 17 60 20 73
2 13 6 31 9 40 3 9 8 33 11 52 3 19 10 51 15 70 10 38 16 72 25 140 4 25 9 59
11 75 2 17 6 46 8 65 2 19 7 49 10 65 5 28 14 135 21 265 5 73 5 480 1 550 -2
30 -7 82 -10 115 -3 33 -8 85 -11 115 -2 30 -7 73 -9 95 -3 22 -8 60 -11 85
-3 25 -7 56 -10 70 -3 14 -7 48 -10 75 -3 28 -8 58 -11 68 -6 20 -9 36 -19
102 -3 22 -9 47 -12 55 -3 8 -7 24 -9 35 -2 19 -6 37 -18 95 -15 69 -69 276
-74 285 -4 6 -8 17 -9 25 -3 19 -55 181 -76 235 -8 22 -18 49 -23 60 -4 11 -8
22 -9 25 -1 3 -5 12 -8 20 -22 52 -51 136 -49 143 1 4 -3 7 -8 7 -6 0 -10 6
-10 14 0 12 -52 136 -98 236 -9 19 -17 37 -17 40 -2 11 -168 336 -179 350 -6
8 -22 35 -36 60 -38 72 -172 285 -181 288 -5 2 -9 9 -9 15 0 7 -14 28 -30 47
-16 19 -30 38 -30 42 0 4 -6 16 -14 25 -8 10 -58 74 -111 142 -53 69 -112 143
-131 165 -122 140 -162 184 -279 301 -71 72 -157 154 -190 182 -33 29 -71 61
-85 73 -14 12 -51 43 -82 68 -32 26 -58 50 -58 55 0 4 -6 7 -12 7 -7 0 -32 18
-56 40 -24 22 -47 40 -52 40 -6 0 -10 3 -10 8 0 4 -17 18 -37 32 -38 25 -53
37 -101 77 -15 13 -30 23 -34 23 -4 0 -13 6 -20 13 -7 7 -29 24 -48 37 -19 13
-39 28 -45 32 -25 20 -202 139 -215 145 -8 4 -19 11 -25 15 -30 25 -234 148
-245 148 -5 0 -15 6 -22 13 -7 8 -25 20 -40 28 -15 8 -63 32 -105 54 -43 22
-80 42 -83 45 -7 8 -207 104 -315 152 -49 22 -99 43 -110 48 -53 24 -151 62
-164 65 -9 2 -34 11 -55 20 -22 9 -47 18 -55 20 -9 2 -40 13 -68 24 -29 10
-53 17 -53 14 0 -3 -7 0 -15 7 -8 7 -15 9 -15 5 0 -4 -6 -3 -12 3 -7 6 -40 18
-73 27 -111 31 -130 36 -148 40 -10 2 -27 7 -37 10 -10 3 -27 7 -37 9 -10 2
-38 9 -63 16 -25 7 -54 14 -65 16 -11 3 -40 9 -65 14 -25 6 -56 13 -70 15 -14
3 -55 12 -92 20 -36 8 -83 17 -105 20 -21 4 -45 8 -53 10 -8 3 -33 7 -55 10
-22 4 -47 8 -55 10 -8 2 -41 7 -73 10 -32 4 -68 8 -80 11 -48 10 -252 28 -437
40 -83 6 -579 12 -583 7z"/>
<path d="M24530 21711 c-101 -33 -253 -92 -260 -102 -3 -3 -16 -10 -30 -14
-36 -11 -390 -184 -422 -207 -16 -11 -28 -16 -28 -12 0 3 -6 2 -12 -4 -7 -5
-42 -25 -78 -44 -36 -19 -110 -59 -165 -88 -55 -29 -105 -57 -111 -61 -6 -5
-42 -25 -80 -46 -38 -20 -92 -51 -121 -69 -28 -18 -54 -30 -57 -27 -3 4 -6 1
-6 -5 0 -7 -4 -12 -9 -12 -13 0 -155 -82 -159 -92 -2 -4 -10 -8 -18 -8 -8 0
-14 -5 -14 -12 0 -6 -2 -9 -6 -6 -4 5 -440 -246 -469 -270 -5 -4 -25 -15 -42
-22 -18 -8 -33 -18 -33 -22 0 -5 -7 -8 -15 -8 -8 0 -15 -5 -15 -11 0 -5 -4 -8
-9 -5 -5 4 -11 3 -13 -1 -1 -5 -43 -32 -93 -62 -143 -87 -471 -300 -502 -326
-6 -5 -49 -39 -95 -75 -45 -35 -104 -89 -130 -119 -45 -51 -48 -58 -48 -110 0
-69 27 -130 76 -176 60 -57 128 -71 228 -47 82 19 78 18 101 27 11 4 45 17 75
28 50 19 389 188 605 302 50 26 117 61 150 79 33 17 63 36 67 41 5 7 8 7 8 0
0 -6 3 -6 8 0 4 6 36 25 72 44 69 35 149 77 190 101 14 8 27 15 30 15 5 1 20
8 85 45 17 9 71 39 120 65 50 27 130 70 179 97 49 26 92 48 95 48 4 0 23 11
44 25 20 14 37 22 37 18 0 -4 4 -3 8 2 4 6 41 28 82 50 41 22 98 52 125 67 28
14 86 46 130 69 44 23 85 45 90 49 6 4 51 29 100 56 164 88 182 98 322 176 76
43 156 90 179 105 23 16 59 40 81 55 67 45 170 154 197 210 50 103 40 175 -32
239 -92 81 -256 101 -412 50z"/>
<path d="M2853 19852 c-59 -24 -92 -52 -110 -92 -18 -41 -20 -128 -4 -159 7
-11 9 -21 5 -21 -3 0 -1 -7 6 -15 7 -8 9 -15 4 -15 -5 0 -4 -4 1 -8 6 -4 16
-19 24 -33 16 -32 110 -139 122 -139 5 0 18 -8 29 -17 11 -10 23 -17 26 -15 3
2 13 -5 22 -16 16 -17 299 -163 437 -224 158 -71 503 -212 710 -291 50 -19 99
-38 110 -42 11 -4 28 -10 38 -11 10 -2 29 -11 42 -20 13 -8 27 -15 30 -14 5 1
66 -19 120 -40 73 -28 121 -45 290 -105 105 -37 228 -80 275 -97 95 -34 109
-38 114 -35 1 1 9 -3 17 -10 8 -6 26 -14 39 -17 37 -9 273 -90 288 -100 7 -4
16 -6 18 -3 3 3 22 -2 42 -10 30 -12 151 -50 252 -78 219 -61 304 -77 410 -79
54 -1 71 3 94 22 109 86 130 240 44 337 -42 48 -174 135 -288 189 -83 39 -164
75 -180 81 -3 1 -16 6 -30 12 -14 6 -65 27 -115 48 -49 20 -103 42 -120 50
-16 7 -70 30 -120 50 -49 20 -103 42 -120 50 -16 7 -145 59 -285 115 -140 56
-261 107 -267 112 -7 6 -13 7 -13 4 0 -4 -10 -1 -22 6 -13 6 -27 13 -33 14
-11 3 -371 146 -420 168 -16 7 -73 30 -125 51 -52 20 -108 43 -125 50 -16 7
-52 21 -80 30 -27 10 -56 23 -63 28 -7 5 -15 7 -18 4 -4 -3 -13 1 -21 9 -8 8
-19 12 -24 9 -5 -4 -9 -1 -9 5 0 6 -4 9 -9 5 -5 -3 -12 -1 -16 5 -3 5 -12 10
-19 10 -8 0 -31 8 -52 17 -22 9 -41 17 -44 18 -3 1 -14 5 -25 10 -137 57 -451
173 -488 181 -10 2 -26 5 -35 8 -45 14 -86 19 -182 22 -82 2 -114 -1 -147 -14z"/>
<path d="M21777 15604 c-1 -1 -27 -5 -57 -8 -56 -7 -95 -13 -95 -16 0 -1 -8
-3 -18 -5 -27 -5 -45 -23 -75 -74 -22 -38 -27 -58 -27 -116 0 -76 17 -125 58
-163 32 -30 118 -74 187 -96 30 -10 62 -20 70 -23 20 -8 47 -14 120 -29 14 -3
34 -8 45 -11 11 -4 29 -8 40 -9 11 -1 56 -9 100 -18 44 -9 96 -19 115 -22 19
-3 80 -13 135 -24 55 -10 168 -31 250 -45 181 -30 196 -33 260 -45 28 -5 66
-12 85 -14 19 -3 46 -8 60 -10 14 -3 41 -7 60 -10 19 -3 62 -10 95 -16 97 -17
238 -41 270 -46 17 -3 71 -12 120 -21 128 -21 126 -21 175 -28 25 -3 52 -8 59
-11 8 -3 34 -7 57 -10 23 -3 53 -7 65 -10 13 -2 40 -7 59 -10 19 -3 62 -10 95
-16 67 -12 96 -16 140 -22 17 -2 57 -9 90 -14 33 -6 76 -13 95 -16 19 -3 46
-8 60 -10 14 -2 48 -8 75 -12 28 -4 57 -9 65 -10 8 -2 35 -6 60 -9 25 -3 55
-8 66 -10 54 -12 158 -19 259 -19 116 0 162 5 208 23 15 6 27 8 27 5 0 -10 75
39 100 65 41 43 48 64 46 127 -3 78 -32 134 -108 206 -54 53 -172 121 -225
132 -10 1 -25 6 -33 9 -14 6 -149 43 -187 52 -10 2 -87 20 -172 39 -84 19
-167 37 -185 40 -17 3 -69 13 -116 22 -104 20 -97 18 -250 44 -69 12 -138 23
-155 26 -16 3 -43 7 -60 9 -53 6 -138 20 -192 31 -6 1 -38 5 -70 8 -72 8 -115
14 -151 21 -15 3 -52 7 -82 11 -30 3 -66 7 -80 10 -14 2 -50 6 -80 10 -30 3
-66 7 -80 9 -14 3 -47 7 -75 10 -27 3 -63 8 -79 11 -15 2 -51 7 -80 10 -28 3
-62 7 -76 9 -25 4 -70 9 -160 20 -25 3 -61 8 -80 10 -19 3 -61 7 -93 10 -32 3
-70 7 -85 9 -15 3 -67 8 -117 12 -49 3 -106 8 -125 10 -119 10 -397 23 -403
18z"/>
<path d="M6177 14554 c-1 -1 -27 -5 -57 -8 -30 -3 -66 -8 -80 -11 -14 -3 -43
-8 -65 -10 -43 -5 -45 -6 -150 -29 -38 -9 -83 -18 -100 -21 -50 -8 -175 -33
-515 -105 -179 -38 -337 -71 -352 -74 -15 -2 -32 -7 -37 -10 -5 -4 -31 -9 -57
-12 -27 -3 -56 -10 -66 -15 -10 -5 -18 -8 -18 -5 0 3 -15 0 -32 -5 -42 -12
-96 -22 -125 -23 -13 0 -23 -4 -23 -10 0 -5 -3 -7 -6 -4 -3 3 -20 2 -37 -3
-18 -4 -48 -11 -67 -14 -19 -3 -51 -10 -70 -15 -19 -5 -47 -12 -62 -15 -66
-13 -89 -17 -193 -41 -60 -14 -121 -27 -135 -29 -40 -8 -65 -13 -67 -15 -2 -2
-11 -3 -20 -4 -10 -1 -27 -5 -38 -9 -11 -3 -36 -9 -55 -13 -40 -7 -63 -12 -70
-14 -3 -1 -8 -2 -11 -2 -4 1 -22 -3 -40 -9 -19 -5 -47 -12 -64 -14 -16 -3 -56
-12 -88 -20 -32 -8 -72 -17 -88 -20 -17 -3 -58 -12 -92 -21 -34 -8 -70 -17
-81 -19 -156 -36 -335 -111 -396 -166 -17 -16 -34 -29 -38 -29 -4 0 -20 -21
-36 -46 -65 -102 -37 -207 74 -285 19 -13 37 -24 40 -24 3 -1 14 -6 25 -12 11
-6 23 -12 27 -12 11 -2 40 -12 64 -21 37 -15 357 -3 434 16 14 3 49 8 77 9 29
2 57 6 62 9 5 4 31 9 58 12 26 3 56 7 65 10 26 8 61 14 93 18 28 3 54 8 115
22 14 3 32 7 40 8 8 1 38 8 65 14 28 6 104 23 170 37 173 38 560 129 700 166
66 17 127 32 135 34 8 2 15 4 15 5 0 1 11 4 25 7 39 7 55 11 55 13 0 1 7 3 15
5 8 1 33 8 55 13 22 6 55 14 74 17 19 3 38 8 43 11 4 3 17 7 28 10 11 2 29 6
40 9 11 3 28 7 38 9 9 3 53 14 97 26 44 12 91 24 104 26 14 3 29 8 35 11 6 4
19 8 31 9 47 6 461 134 605 188 87 32 191 80 239 110 121 77 92 295 -48 363
-20 9 -43 19 -51 20 -17 4 -209 10 -213 7z"/>
<path d="M20140 12688 c-52 -9 -86 -24 -116 -53 -12 -11 -66 -61 -121 -112
-54 -51 -145 -138 -200 -195 -108 -110 -124 -127 -218 -233 -33 -37 -65 -73
-70 -79 -6 -6 -38 -45 -70 -86 -33 -41 -68 -84 -77 -94 -10 -11 -18 -23 -18
-27 0 -4 -6 -14 -13 -21 -40 -41 -247 -363 -247 -385 0 -6 -3 -13 -8 -15 -11
-5 -102 -185 -102 -203 0 -8 -4 -15 -10 -15 -5 0 -13 -12 -16 -27 -4 -16 -13
-39 -20 -53 -68 -129 -174 -523 -189 -705 -3 -27 -7 -72 -11 -100 -3 -27 -6
-134 -6 -236 0 -166 2 -194 22 -258 47 -147 149 -197 226 -110 46 51 100 167
127 269 15 58 39 141 54 185 14 44 26 85 28 90 1 6 7 23 13 38 7 16 12 31 12
33 0 3 18 53 41 110 22 58 42 110 43 117 2 7 14 37 28 67 35 79 41 94 40 103
-1 4 2 7 8 7 5 0 10 6 10 13 0 27 221 457 331 645 27 46 49 88 49 93 0 5 3 9
8 9 4 0 18 23 31 50 14 28 29 50 35 50 5 0 7 3 4 6 -5 5 107 193 132 222 6 6
8 12 5 12 -3 0 5 15 19 33 15 19 26 39 26 44 0 6 7 16 15 23 8 7 21 24 29 39
7 14 41 76 75 136 33 61 61 115 61 122 0 6 4 13 8 15 9 3 88 163 94 188 2 8 6
17 9 20 7 7 57 159 63 193 4 22 -1 35 -20 52 -30 28 -56 33 -114 23z"/>
<path d="M9767 10639 c-25 -15 -44 -59 -42 -101 1 -33 25 -75 67 -120 7 -7 33
-38 58 -68 25 -30 47 -57 50 -60 3 -3 25 -30 50 -60 25 -30 49 -60 55 -66 73
-81 141 -170 154 -202 7 -17 17 -32 21 -32 5 0 11 -13 15 -30 4 -16 11 -30 16
-30 5 0 9 -4 9 -10 0 -5 50 -97 110 -205 61 -108 114 -203 117 -213 4 -9 9
-19 13 -22 5 -5 101 -198 133 -270 43 -96 105 -265 122 -336 29 -113 33 -145
51 -344 11 -133 46 -273 81 -327 21 -32 74 -39 128 -19 40 16 49 26 62 71 1 6
12 42 23 80 29 96 31 105 49 250 8 66 7 306 -3 350 -2 11 -7 43 -10 70 -4 28
-12 68 -18 90 -6 22 -12 54 -15 70 -3 17 -9 35 -14 41 -5 6 -6 13 -3 16 3 4
-1 19 -10 36 -8 16 -13 32 -10 35 3 3 -1 18 -10 35 -8 16 -12 32 -9 36 4 3 2
6 -4 6 -5 0 -10 6 -10 13 0 33 -127 310 -209 457 -67 122 -142 241 -159 252
-5 4 -7 8 -3 8 4 0 -15 32 -41 70 -50 74 -189 222 -287 306 -31 27 -62 54 -68
59 -42 40 -188 122 -257 144 -80 26 -176 36 -202 20z"/>
<path d="M17825 5943 c-35 -6 -160 -47 -165 -53 -3 -4 -18 -13 -35 -22 -35
-18 -171 -99 -230 -136 -22 -15 -45 -27 -51 -28 -6 -1 -28 -13 -50 -26 -21
-13 -82 -46 -134 -72 -52 -27 -110 -57 -127 -68 -18 -11 -33 -16 -33 -11 0 4
-4 3 -8 -2 -6 -10 -47 -29 -252 -123 -36 -16 -126 -53 -200 -83 -74 -29 -137
-56 -140 -59 -3 -3 -12 -6 -20 -7 -8 0 -49 -13 -90 -28 -182 -65 -533 -166
-660 -190 -14 -3 -36 -7 -50 -10 -14 -3 -36 -8 -50 -10 -14 -3 -47 -9 -75 -15
-83 -17 -98 -20 -140 -25 -22 -3 -58 -8 -80 -11 -22 -4 -51 -8 -65 -10 -148
-22 -508 -22 -715 0 -139 15 -203 23 -247 32 -15 3 -39 7 -55 9 -79 11 -139
21 -288 50 -16 3 -39 8 -50 10 -11 2 -54 10 -95 19 -41 8 -88 17 -105 20 -48
8 -187 46 -209 58 -12 6 -23 11 -26 11 -15 -1 -130 44 -228 89 -45 21 -87 38
-92 38 -6 0 -10 4 -10 10 0 5 -3 9 -7 8 -11 -2 -84 33 -105 50 -9 7 -22 14
-30 15 -7 2 -33 14 -58 27 -52 29 -202 103 -313 155 -103 47 -192 51 -231 11
-21 -20 -24 -31 -21 -87 6 -112 25 -181 83 -296 68 -134 222 -303 351 -387 86
-55 296 -175 313 -178 7 -2 15 -6 18 -9 3 -4 28 -18 55 -32 28 -13 82 -40 120
-59 67 -34 131 -63 202 -94 18 -8 48 -21 66 -28 85 -38 354 -131 402 -140 13
-2 32 -9 44 -15 11 -6 24 -11 28 -10 4 1 10 0 13 -1 12 -4 63 -16 150 -35 43
-9 133 -24 175 -29 22 -3 54 -8 70 -10 176 -30 693 -25 950 9 22 3 56 7 75 9
65 7 165 23 165 26 0 1 16 3 35 5 19 2 49 6 65 9 71 13 225 46 285 61 36 9 76
18 90 21 21 4 122 31 245 64 17 4 59 18 95 29 36 12 72 23 80 25 8 2 22 6 30
9 37 15 228 80 258 87 18 4 39 14 47 20 8 7 15 9 15 5 0 -4 6 -2 13 4 8 6 17
8 20 4 4 -3 7 -1 7 5 0 7 3 11 8 10 23 -8 345 151 481 236 22 15 45 26 51 26
5 0 10 3 10 8 0 4 17 16 37 27 21 11 63 36 93 56 30 19 92 59 138 88 45 30 82
57 82 61 0 4 14 13 30 20 17 7 34 18 38 24 4 6 28 28 55 49 132 107 247 246
299 365 25 56 31 163 13 231 -14 55 -59 143 -69 134 -3 -3 -6 -1 -6 6 0 26
-92 54 -180 56 -47 2 -94 1 -105 -2z"/>
<path d="M17885 4544 c-19 -6 -35 -10 -35 -8 0 1 -32 -10 -72 -27 -39 -16 -81
-31 -93 -33 -22 -4 -65 -25 -75 -37 -3 -3 -23 -16 -45 -29 -22 -13 -43 -28
-46 -33 -3 -5 -9 -8 -13 -7 -4 0 -32 -14 -64 -33 -159 -97 -659 -347 -693
-347 -5 0 -17 -4 -27 -10 -34 -18 -256 -106 -292 -115 -8 -2 -67 -22 -130 -44
-191 -66 -438 -135 -665 -186 -137 -31 -191 -39 -312 -50 -34 -3 -72 -8 -85
-10 -28 -6 -297 -18 -388 -18 -83 0 -345 12 -386 17 -17 3 -58 7 -90 11 -33 3
-72 8 -89 10 -16 3 -43 7 -60 9 -71 10 -113 17 -155 26 -25 5 -58 12 -75 14
-16 3 -39 7 -50 10 -11 3 -69 17 -130 32 -105 25 -348 96 -390 114 -48 20
-151 54 -157 52 -5 -1 -8 3 -8 8 0 6 -7 10 -15 10 -16 0 -135 51 -265 113 -47
22 -91 42 -99 43 -8 2 -17 8 -21 14 -4 7 -9 11 -11 9 -4 -2 -56 23 -122 59
-20 11 -59 19 -102 21 -90 3 -103 -9 -100 -94 1 -33 3 -60 5 -60 1 0 3 -11 4
-25 3 -32 56 -150 67 -150 5 0 9 -6 9 -12 1 -31 124 -158 280 -289 73 -61 226
-169 239 -169 6 0 11 -4 11 -10 0 -5 4 -10 9 -10 6 0 30 -13 54 -30 25 -16 48
-30 52 -30 4 0 20 -9 36 -21 16 -11 29 -17 29 -13 0 4 8 0 18 -8 9 -8 33 -22
52 -30 19 -9 67 -31 105 -48 93 -43 117 -52 138 -57 10 -1 29 -10 42 -19 13
-8 28 -15 32 -15 4 0 55 -15 113 -33 146 -48 362 -101 490 -121 19 -3 59 -10
88 -15 29 -5 56 -9 60 -8 4 1 25 -1 47 -5 38 -7 80 -11 225 -22 149 -12 543
-6 670 10 19 2 64 7 100 10 36 3 72 8 80 10 8 2 40 7 70 10 30 3 62 8 70 10 8
2 29 7 45 10 28 4 201 39 254 51 14 3 28 7 31 9 4 2 21 7 38 10 17 3 82 20
144 39 131 40 179 53 228 61 81 15 269 73 355 110 17 7 64 26 105 43 41 17
107 45 145 63 39 18 72 33 75 34 3 0 32 13 65 29 188 89 266 129 313 161 30
19 56 35 59 35 12 0 235 173 240 186 3 8 8 12 12 10 4 -3 29 20 56 51 28 31
60 65 73 76 12 11 22 24 22 29 0 7 7 16 52 70 10 11 15 25 12 29 -3 5 -1 9 4
9 5 0 26 36 46 80 31 69 36 91 40 172 4 104 -9 170 -44 220 -47 70 -129 98
-205 72z"/>
<path d="M17270 2893 c-274 -130 -284 -134 -405 -188 -16 -7 -55 -23 -85 -35
-30 -12 -68 -28 -85 -35 -42 -18 -210 -75 -232 -79 -10 -2 -38 -10 -63 -17
-25 -7 -49 -12 -53 -11 -4 1 -16 -2 -25 -7 -9 -5 -35 -11 -57 -15 -22 -3 -56
-10 -75 -16 -19 -6 -48 -13 -65 -15 -16 -2 -82 -13 -145 -24 -63 -11 -135 -22
-160 -26 -96 -13 -116 -15 -155 -19 -22 -2 -65 -7 -95 -10 -158 -18 -406 -29
-635 -30 -184 0 -464 10 -515 18 -14 3 -59 7 -100 10 -41 4 -86 8 -100 10 -23
4 -184 27 -220 31 -8 1 -31 5 -50 9 -19 4 -46 8 -60 10 -14 2 -32 6 -40 9 -8
3 -33 9 -55 13 -22 4 -42 8 -45 9 -3 0 -22 4 -43 9 -48 9 -174 59 -190 75 -6
6 -19 11 -29 11 -10 0 -18 4 -18 9 0 11 -91 41 -125 41 -52 0 -115 -52 -134
-110 -24 -75 -16 -207 19 -327 6 -21 20 -72 31 -113 18 -64 84 -214 122 -274
149 -239 311 -412 516 -550 54 -36 103 -66 110 -66 6 0 11 -4 11 -10 0 -5 6
-10 14 -10 8 0 30 -9 48 -19 35 -21 199 -77 252 -87 17 -3 45 -18 62 -35 17
-16 33 -27 37 -24 4 3 5 2 2 -1 -2 -4 2 -13 10 -20 13 -14 89 -127 150 -223
29 -47 120 -143 168 -176 106 -76 287 -154 393 -169 22 -4 51 -9 64 -12 111
-23 309 -22 415 1 11 3 32 7 48 10 62 11 83 16 102 22 11 4 22 7 25 8 124 26
254 102 368 213 64 62 175 208 212 280 16 31 36 68 44 82 15 25 50 101 52 110
2 16 37 87 51 102 9 10 12 18 8 18 -4 0 11 14 33 30 23 17 46 30 51 30 5 0 11
3 13 8 2 4 21 16 43 27 52 26 189 116 193 127 2 4 10 8 18 8 8 0 14 7 14 16 0
8 4 12 10 9 12 -7 230 211 230 230 0 3 9 16 21 28 46 49 174 288 161 301 -3 3
-1 6 5 6 9 0 15 13 29 65 1 6 12 36 23 68 11 31 18 57 16 57 -2 0 1 15 7 33
10 33 13 49 22 107 3 19 8 44 10 55 11 53 19 162 21 279 l2 129 -32 32 c-43
42 -72 41 -165 -2z"/>
</g>
</svg>
